<svg width="20" height="20" viewBox="0 0 20 20" fill="none" xmlns="http://www.w3.org/2000/svg">
<g clip-path="url(#clip0_318_972)">
<path d="M13.334 6.66669L18.334 1.66669" stroke="#28A745" stroke-width="2" stroke-linecap="round" stroke-linejoin="round"/>
<path d="M18.334 6.66669V1.66669H13.334" stroke="#28A745" stroke-width="2" stroke-linecap="round" stroke-linejoin="round"/>
<path d="M11.526 13.8067C11.6981 13.8857 11.892 13.9038 12.0758 13.8579C12.2595 13.812 12.4221 13.7049 12.5368 13.5542L12.8327 13.1667C12.9879 12.9597 13.1892 12.7917 13.4207 12.676C13.6521 12.5603 13.9073 12.5 14.166 12.5H16.666C17.108 12.5 17.532 12.6756 17.8445 12.9882C18.1571 13.3007 18.3327 13.7247 18.3327 14.1667V16.6667C18.3327 17.1087 18.1571 17.5326 17.8445 17.8452C17.532 18.1578 17.108 18.3334 16.666 18.3334C12.6878 18.3334 8.87246 16.753 6.05941 13.94C3.24637 11.1269 1.66602 7.3116 1.66602 3.33335C1.66602 2.89133 1.84161 2.4674 2.15417 2.15484C2.46673 1.84228 2.89065 1.66669 3.33268 1.66669H5.83268C6.27471 1.66669 6.69863 1.84228 7.01119 2.15484C7.32375 2.4674 7.49935 2.89133 7.49935 3.33335V5.83335C7.49935 6.0921 7.43911 6.34728 7.32339 6.57871C7.20768 6.81014 7.03968 7.01144 6.83268 7.16669L6.44268 7.45919C6.2897 7.576 6.18187 7.74217 6.13751 7.92948C6.09315 8.11678 6.115 8.31367 6.19935 8.48669C7.33825 10.7999 9.21137 12.6707 11.526 13.8067Z" stroke="#28A745" stroke-width="2" stroke-linecap="round" stroke-linejoin="round"/>
</g>
<defs>
<clipPath id="clip0_318_972">
<rect width="20" height="20" fill="white"/>
</clipPath>
</defs>
</svg>
